<mxfile host="app.diagrams.net" agent="Mozilla/5.0 (Macintosh; Intel Mac OS X 10_15_7) AppleWebKit/537.36 (KHTML, like Gecko) Chrome/128.0.0.0 Safari/537.36" version="24.7.10">
  <diagram name="第 1 页" id="oWwzGOG1_tlnX7Qfblky">
    <mxGraphModel dx="2074" dy="1145" grid="1" gridSize="10" guides="1" tooltips="1" connect="1" arrows="1" fold="1" page="1" pageScale="1" pageWidth="827" pageHeight="1169" math="0" shadow="0">
      <root>
        <mxCell id="0" />
        <mxCell id="1" parent="0" />
        <mxCell id="hC-nPVAIg_cEMk8PZ4My-16" style="edgeStyle=orthogonalEdgeStyle;rounded=0;orthogonalLoop=1;jettySize=auto;html=1;exitX=0;exitY=0.5;exitDx=0;exitDy=0;strokeColor=#788AA3;fontColor=#46495D;fillColor=#B2C9AB;endArrow=none;endFill=0;" edge="1" parent="1" source="hC-nPVAIg_cEMk8PZ4My-1" target="hC-nPVAIg_cEMk8PZ4My-2">
          <mxGeometry relative="1" as="geometry" />
        </mxCell>
        <mxCell id="hC-nPVAIg_cEMk8PZ4My-18" style="edgeStyle=orthogonalEdgeStyle;rounded=0;orthogonalLoop=1;jettySize=auto;html=1;exitX=1;exitY=0.5;exitDx=0;exitDy=0;strokeColor=#788AA3;fontColor=#46495D;fillColor=#B2C9AB;endArrow=none;endFill=0;" edge="1" parent="1" source="hC-nPVAIg_cEMk8PZ4My-1" target="hC-nPVAIg_cEMk8PZ4My-4">
          <mxGeometry relative="1" as="geometry" />
        </mxCell>
        <mxCell id="hC-nPVAIg_cEMk8PZ4My-1" value="&lt;font style=&quot;font-size: 17px;&quot;&gt;可视化&lt;/font&gt;&lt;div&gt;&lt;div&gt;visualization&lt;/div&gt;&lt;/div&gt;" style="rounded=0;whiteSpace=wrap;html=1;labelBackgroundColor=none;fillColor=#B2C9AB;strokeColor=#788AA3;fontColor=#46495D;" vertex="1" parent="1">
          <mxGeometry x="250" y="310" width="120" height="60" as="geometry" />
        </mxCell>
        <mxCell id="hC-nPVAIg_cEMk8PZ4My-17" style="edgeStyle=orthogonalEdgeStyle;rounded=0;orthogonalLoop=1;jettySize=auto;html=1;exitX=0.5;exitY=1;exitDx=0;exitDy=0;entryX=0;entryY=0.5;entryDx=0;entryDy=0;strokeColor=#788AA3;fontColor=#46495D;fillColor=#B2C9AB;endArrow=none;endFill=0;" edge="1" parent="1" source="hC-nPVAIg_cEMk8PZ4My-2" target="hC-nPVAIg_cEMk8PZ4My-3">
          <mxGeometry relative="1" as="geometry" />
        </mxCell>
        <mxCell id="hC-nPVAIg_cEMk8PZ4My-2" value="&lt;font style=&quot;font-size: 17px;&quot;&gt;快捷交付&lt;/font&gt;&lt;div&gt;Quick delivery&lt;br&gt;&lt;/div&gt;" style="rounded=0;whiteSpace=wrap;html=1;labelBackgroundColor=none;fillColor=#B2C9AB;strokeColor=#788AA3;fontColor=#46495D;" vertex="1" parent="1">
          <mxGeometry x="80" y="450" width="120" height="60" as="geometry" />
        </mxCell>
        <mxCell id="hC-nPVAIg_cEMk8PZ4My-3" value="&lt;div&gt;&lt;font style=&quot;font-size: 17px;&quot;&gt;低门槛&lt;/font&gt;&lt;/div&gt;&lt;div&gt;Low threshold&lt;br&gt;&lt;/div&gt;" style="rounded=0;whiteSpace=wrap;html=1;labelBackgroundColor=none;fillColor=#B2C9AB;strokeColor=#788AA3;fontColor=#46495D;" vertex="1" parent="1">
          <mxGeometry x="250" y="570" width="120" height="60" as="geometry" />
        </mxCell>
        <mxCell id="hC-nPVAIg_cEMk8PZ4My-19" style="edgeStyle=orthogonalEdgeStyle;rounded=0;orthogonalLoop=1;jettySize=auto;html=1;exitX=0.5;exitY=1;exitDx=0;exitDy=0;entryX=1;entryY=0.5;entryDx=0;entryDy=0;strokeColor=#788AA3;fontColor=#46495D;fillColor=#B2C9AB;endArrow=none;endFill=0;" edge="1" parent="1" source="hC-nPVAIg_cEMk8PZ4My-4" target="hC-nPVAIg_cEMk8PZ4My-3">
          <mxGeometry relative="1" as="geometry" />
        </mxCell>
        <mxCell id="hC-nPVAIg_cEMk8PZ4My-4" value="&lt;font style=&quot;font-size: 17px;&quot;&gt;配置化&lt;/font&gt;&lt;div&gt;Configuring&lt;br&gt;&lt;/div&gt;" style="rounded=0;whiteSpace=wrap;html=1;labelBackgroundColor=none;fillColor=#B2C9AB;strokeColor=#788AA3;fontColor=#46495D;" vertex="1" parent="1">
          <mxGeometry x="414" y="450" width="120" height="60" as="geometry" />
        </mxCell>
        <mxCell id="hC-nPVAIg_cEMk8PZ4My-5" value="&lt;font style=&quot;font-size: 17px;&quot;&gt;低代码&lt;/font&gt;" style="rhombus;whiteSpace=wrap;html=1;fillColor=#ffe6cc;strokeColor=#d79b00;labelBackgroundColor=none;" vertex="1" parent="1">
          <mxGeometry x="250" y="420" width="110" height="100" as="geometry" />
        </mxCell>
        <mxCell id="hC-nPVAIg_cEMk8PZ4My-6" value="营销人员/产品经理/开发人员等" style="text;html=1;align=center;verticalAlign=middle;whiteSpace=wrap;rounded=0;labelBackgroundColor=none;fontColor=#46495D;" vertex="1" parent="1">
          <mxGeometry x="220" y="640" width="200" height="30" as="geometry" />
        </mxCell>
        <mxCell id="hC-nPVAIg_cEMk8PZ4My-7" value="" style="shape=flexArrow;endArrow=classic;html=1;rounded=0;labelBackgroundColor=none;strokeColor=#788AA3;fontColor=default;" edge="1" parent="1">
          <mxGeometry width="50" height="50" relative="1" as="geometry">
            <mxPoint x="590" y="490" as="sourcePoint" />
            <mxPoint x="710" y="490" as="targetPoint" />
          </mxGeometry>
        </mxCell>
        <mxCell id="hC-nPVAIg_cEMk8PZ4My-8" value="核心价值" style="text;html=1;align=center;verticalAlign=middle;whiteSpace=wrap;rounded=0;labelBackgroundColor=none;fontColor=#46495D;" vertex="1" parent="1">
          <mxGeometry x="610" y="450" width="60" height="30" as="geometry" />
        </mxCell>
        <mxCell id="hC-nPVAIg_cEMk8PZ4My-9" value="降本提效" style="text;html=1;align=center;verticalAlign=middle;whiteSpace=wrap;rounded=0;fontSize=20;fontColor=#46495D;labelBackgroundColor=none;" vertex="1" parent="1">
          <mxGeometry x="717" y="430" width="110" height="30" as="geometry" />
        </mxCell>
        <mxCell id="hC-nPVAIg_cEMk8PZ4My-10" value="角色赋能" style="text;html=1;align=center;verticalAlign=middle;whiteSpace=wrap;rounded=0;fontSize=20;fontColor=#46495D;labelBackgroundColor=none;" vertex="1" parent="1">
          <mxGeometry x="720" y="510" width="110" height="30" as="geometry" />
        </mxCell>
        <mxCell id="hC-nPVAIg_cEMk8PZ4My-12" style="edgeStyle=orthogonalEdgeStyle;rounded=0;orthogonalLoop=1;jettySize=auto;html=1;exitX=0.5;exitY=1;exitDx=0;exitDy=0;labelBackgroundColor=none;strokeColor=#788AA3;fontColor=default;" edge="1" parent="1" source="hC-nPVAIg_cEMk8PZ4My-10" target="hC-nPVAIg_cEMk8PZ4My-10">
          <mxGeometry relative="1" as="geometry" />
        </mxCell>
      </root>
    </mxGraphModel>
  </diagram>
</mxfile>
